<svg xmlns="http://www.w3.org/2000/svg" width="210mm" height="297mm" viewBox="0 0 210 297">
  <g fill="none" stroke="#000" stroke-width=".265">
    <path d="M24.946 77.018c0 1.008-.125 2.024 0 3.024-.126 1.922 1.253 3.475 1.512 5.291.143.998 0 2.016 0 3.024.252 1.008.585 2 .756 3.024.083.497 0 1.008 0 1.512v3.78c0 .504-.099 1.017 0 1.512.157.78.625 1.481.756 2.267.125.746-.148 1.527 0 2.268.11.553.664.956.756 1.512.249 1.491 0 3.024 0 4.536v33.262"/>
    <path d="M26.458 88.357c-2.268.756-4.46 1.8-6.803 2.268-1.105.221 1.954-1.156 3.024-1.512 1.219-.406 2.71-.043 3.78-.756 1.342-.895 1.882-2.639 3.023-3.78.347-.347 3.894-1.947 4.536-2.267.504-.252.977-.578 1.512-.756.239-.08.53.112.756 0 3.46-1.73-3.208.313 2.268-1.512.239-.08.511.06.756 0 .773-.194 1.486-.6 2.267-.756.495-.1 1.062.225 1.512 0 .907-.454 1.361-1.815 2.268-2.268.258-.13 4.44 0 5.292 0 .404 0 3.563-.108 3.78 0 1.157.579.59 1.347 1.511 2.268.399.398 1.2.287 1.512.756.28.419-.225 1.06 0 1.512.113.225.578-.179.756 0 .179.178-.08.516 0 .756.179.534.358 1.113.756 1.511.178.179.644-.225.756 0 .338.677 0 1.512 0 2.268 0 .34.115 2.038 0 2.268-.16.319-.596.437-.756.756-.112.225.113.53 0 .756-.344.688-2.872 2.154-3.024 2.268-.57.428-.918 1.116-1.511 1.512-.47.312-1.114.357-1.512.756-.179.178.225.643 0 .756-.451.225-1.034-.16-1.512 0-.676.225-.836 1.286-1.512 1.512-4.797 1.599 2.482-2.618-3.024 1.512-1.914 1.435-.992.35-3.024.755-.781.157-1.512.504-2.268.756-.756.252-1.528.46-2.267.756-.524.21-.966.62-1.512.756-.963.24-2.798-.245-3.78 0-.773.194-1.512.504-2.268.756-.756.252-1.528.46-2.268.756-.523.21-.977.578-1.512.756-.717.24-1.55-.239-2.268 0-.676.226-.874 1.193-1.512 1.512-.712.356-1.555.4-2.267.756-.638.319-.875 1.193-1.512 1.512-.226.113-.578-.178-.756 0-.178.178-.226.643 0 .756.45.225 1.008 0 1.512 0s1.017.099 1.512 0c.78-.156 1.486-.6 2.267-.756.495-.099 1.034.16 1.512 0 .338-.113.438-.597.756-.756.23-.115 2.502 0 3.024 0h4.536c.504 0 1.034-.16 1.512 0 .338.113.437.597.756.756.225.113.53-.113.756 0 .637.319.874 1.193 1.512 1.512.225.113.53-.113.755 0 .27.135 2.815 2.71 3.024 3.024.625.937.836 2.122 1.512 3.023.428.57 1.193.875 1.512 1.512.225.451-.122 1.023 0 1.512.913 3.65.36-.037 1.512 2.268.113.226-.113.53 0 .756.319.638 1.193.875 1.512 1.512.113.225-.113.53 0 .756.16.319.596.437.756.756.113.225-.113.53 0 .756.16.319.504.504.756.756s.437.596.756.756c.225.112.578-.178.756 0 .178.178-.178.578 0 .756.356.356 1.06-.226 1.512 0 .318.16.437.596.756.756.225.112.504 0 .756 0h.755c.278 0 2.994.03 3.024 0 .178-.179-.112-.53 0-.756.16-.319.504-.504.756-.756l.756-.756c1.457-1.457 1.552-1.233 2.268-3.024.296-.74.4-1.555.756-2.268.16-.319.643-.418.756-.756.157-.472 0-5.641 0-6.047 0-.184.024-2.244 0-2.268-.178-.178-.578.178-.756 0-.503-.503.503-1.01 0-1.512-.178-.178-.53.112-.756 0-3.146-1.573.808.052-.756-1.512-.178-.178-.578.178-.756 0-.178-.178-.178-.578 0-.756.178-.178.578-.178.756 0 .178.178-.178.578 0 .756.178.178.643-.225.756 0 .225.45-.225 1.061 0 1.512.113.225.578-.178.756 0v2.268c.113.338.597.437.756.756.113.225-.113.53 0 .756.16.318.597.437.756.756.237.475-.238 2.548 0 3.023.16.32.504.504.756.756 0 .504-.16 1.034 0 1.512.17.512 1.979 1.69 2.268 2.268.112.225-.178.578 0 .756.356.356 1.034-.16 1.512 0 .534.178.977.578 1.512.756.426.142 1.77 0 2.267 0 .278 0 2.994.03 3.024 0 .178-.178-.113-.53 0-.756.96-1.92.904.774 1.512-2.268.148-.741 0-1.512 0-2.268v-3.78c0-.648.148-4.093 0-4.535-.113-.338-.596-.437-.756-.756-.113-.226 0-.504 0-.756 0-.504.226-1.061 0-1.512-.113-.225-.504 0-.756 0-.252-.504-.756-.948-.756-1.512 0-.252.578-.178.756 0 .357.356-.225 1.061 0 1.512.16.319.597.437.756.756.113.225 0 .504 0 .756v5.292c0 .252-.113.53 0 .756.16.318.597.437.756.755.302.605-.302 1.664 0 2.268 1.573 3.146-.052-.808 1.512.756s-2.39-.06.756 1.512c.45.226 1.023-.122 1.512 0 .773.193 1.555.4 2.268.756.318.16.437.597.756.756.263.132 3.98 0 4.535 0 .396 0 2.825.1 3.024 0 .2-.1 2.168-2.067 2.268-2.268.113-.225-.061-.511 0-.756.193-.773.46-1.528.756-2.268.419-1.046 1.239-1.93 1.512-3.023.244-.978-.245-2.046 0-3.024 1.234-4.936.406 2.856 1.512-3.78.124-.746 0-1.512 0-2.268V98.94 84.577 82.31c0-.756.124-1.523 0-2.268-.131-.786-.6-1.487-.756-2.268-.116-.578.192-2.449 0-3.024-1.825-5.476.218 1.192-1.512-2.268-.078-.155-.107-2.161 0-2.268.178-.178.53-.112.756 0 1.366.683.47 1.882.756 3.024.137.547.504 1.008.756 1.512 0 .756-.124 1.522 0 2.268.13.786.6 1.486.756 2.268.197.988 0 2.016 0 3.024V106.5c0 .252-.08.517 0 .756.457 1.373.647 1.403 1.512 2.268.252.252.596.437.756.756.112.225-.179.578 0 .756.178.178.577-.178.756 0 .178.178-.179.577 0 .756.356.356 1.155-.357 1.511 0 .179.178-.178.577 0 .756.179.178.504 0 .756 0h1.512c.504 0 1.034.159 1.512 0 .535-.179 1.008-.504 1.512-.756s1.114-.358 1.512-.756c.178-.178-.14-.547 0-.756.395-.593 1.008-1.008 1.512-1.512.252-.252.643-.418.756-.756.16-.478 0-1.008 0-1.512v-2.268-5.292-18.142-7.56-1.512c0-.252-.252-.756 0-.756s0 .504 0 .756V89.87c0 1.26.247 2.544 0 3.78-.11.552-.646.96-.756 1.512-.148.741.148 1.526 0 2.268-.11.552-.578.977-.756 1.511-.146.438 0 2.37 0 3.024V114.815c0 .252.252.756 0 .756-.356 0-.418-.643-.756-.756-.478-.159-1.155.357-1.512 0-.356-.356 0-1.007 0-1.511v-1.512c0-.487-.128-4.78 0-5.292.137-.547.62-.965.756-1.512.122-.489-.099-1.018 0-1.512.156-.781.6-1.486.756-2.268.099-.494-.225-1.06 0-1.512.113-.225.504 0 .756 0 .252-.504.578-.977.756-1.511.16-.479-.225-1.062 0-1.512.16-.32.597-.438.756-.756.225-.451-.356-1.156 0-1.512.178-.178.578.178.756 0 .178-.178-.178-.578 0-.756.178-.178.504 0 .756 0h4.536c.252 0 .53-.113.755 0 .32.16.438.596.756.756.226.112.578-.178.756 0 .179.178-.178.578 0 .756.179.178.53-.113.756 0 .32.16.438.596.756.756.226.112.578-.179.756 0 .178.178-.178.577 0 .756.178.178.643-.226.756 0 .226.45-.225 1.06 0 1.512.113.225.578-.179.756 0 .178.178-.113.53 0 .755.16.32.597.438.756.756.113.226-.113.531 0 .756.16.32.597.438.756.756.113.226 0 .504 0 .756 0 .318-.112 4.311 0 4.536.16.319.597.437.756.756.15.3-.155 2.113 0 2.268.178.178.53-.113.756 0 1.636.818-.125.693 1.512 1.512.199.1 2.628 0 3.024 0 .34 0 2.037.115 2.268 0 .318-.16.437-.597.755-.756.226-.113.617.21.756 0 .916-1.373.756-2.34.756-3.78 0-.252-.08-.517 0-.756.179-.534.62-.965.756-1.512.123-.489-.159-1.034 0-1.512.113-.338.597-.437.756-.756.115-.23 0-1.927 0-2.268"/>
    <path d="M89.202 88.357c6.004 0 .046.245 6.048-.756.497-.083 1.023.122 1.512 0 .547-.136.965-.62 1.512-.756.489-.122 1.023.122 1.512 0 .546-.136.977-.578 1.512-.756.239-.08.53.113.756 0 .318-.16.437-.596.756-.756.225-.112.577.179.755 0 .179-.178-.178-.577 0-.756.179-.178.531.113.756 0 .32-.159.438-.596.756-.756.451-.225 1.062.226 1.512 0 .319-.159.997-.493.756-.756-2.772-3.023-6.047-5.543-9.071-8.315"/>
  </g>
</svg>
