<?xml version="1.0" encoding="UTF-8" standalone="no"?>
<!-- Created with Inkscape (http://www.inkscape.org/) -->

<svg
   xmlns:dc="http://purl.org/dc/elements/1.1/"
   xmlns:cc="http://creativecommons.org/ns#"
   xmlns:rdf="http://www.w3.org/1999/02/22-rdf-syntax-ns#"
   xmlns:svg="http://www.w3.org/2000/svg"
   xmlns="http://www.w3.org/2000/svg"
   xmlns:sodipodi="http://sodipodi.sourceforge.net/DTD/sodipodi-0.dtd"
   xmlns:inkscape="http://www.inkscape.org/namespaces/inkscape"
   width="210mm"
   height="297mm"
   viewBox="0 0 210 297"
   version="1.1"
   id="svg8"
   inkscape:version="0.92.4 (5da689c313, 2019-01-14)"
   sodipodi:docname="ruthtech-roughtest.svg">
  <defs
     id="defs2" />
  <sodipodi:namedview
     id="base"
     pagecolor="#ffffff"
     bordercolor="#666666"
     borderopacity="1.0"
     inkscape:pageopacity="0.0"
     inkscape:pageshadow="2"
     inkscape:zoom="0.35"
     inkscape:cx="400"
     inkscape:cy="560"
     inkscape:document-units="mm"
     inkscape:current-layer="layer1"
     showgrid="false"
     inkscape:window-width="1920"
     inkscape:window-height="1017"
     inkscape:window-x="-8"
     inkscape:window-y="-8"
     inkscape:window-maximized="1" />
  <metadata
     id="metadata5">
    <rdf:RDF>
      <cc:Work
         rdf:about="">
        <dc:format>image/svg+xml</dc:format>
        <dc:type
           rdf:resource="http://purl.org/dc/dcmitype/StillImage" />
        <dc:title></dc:title>
      </cc:Work>
    </rdf:RDF>
  </metadata>
  <g
     inkscape:label="Layer 1"
     inkscape:groupmode="layer"
     id="layer1">
    <path
       style="fill:none;stroke:#000000;stroke-width:0.26458332px;stroke-linecap:butt;stroke-linejoin:miter;stroke-opacity:1"
       d="m 24.946428,77.017855 c 0,1.007938 -0.125019,2.023658 0,3.023812 -0.126539,1.922637 1.252472,3.47563 1.511905,5.291667 0.142544,0.997804 0,2.015871 0,3.023809 0.251984,1.007935 0.58515,1.998988 0.755952,3.023809 0.08285,0.49711 0,1.007935 0,1.511903 0,1.259922 0,2.519841 0,3.779763 0,0.503968 -0.09884,1.017723 0,1.511904 0.156273,0.78137 0.624953,1.481857 0.755954,2.267858 0.124277,0.74567 -0.148257,1.52658 0,2.26786 0.1105,0.55251 0.663321,0.95611 0.755951,1.5119 0.248555,1.49133 0,3.02381 0,4.53571 0,2.51985 0,5.03969 0,7.55953 0,8.56746 0,17.13492 0,25.70238"
       id="path10"
       inkscape:connector-curvature="0" />
    <path
       style="fill:none;stroke:#000000;stroke-width:0.26458332px;stroke-linecap:butt;stroke-linejoin:miter;stroke-opacity:1"
       d="m 26.458333,88.357143 c -2.267857,0.755951 -4.459463,1.799034 -6.803571,2.267857 -1.105024,0.221004 1.954731,-1.155546 3.023809,-1.511906 1.218937,-0.406312 2.710684,-0.04323 3.779762,-0.755951 1.342501,-0.895001 1.882902,-2.638857 3.023809,-3.779764 0.347284,-0.347284 3.894177,-1.947087 4.535715,-2.267857 0.503968,-0.251984 0.977366,-0.577771 1.511903,-0.755952 0.239054,-0.07968 0.530572,0.112692 0.755955,0 3.459696,-1.729848 -3.207822,0.313322 2.267857,-1.511903 0.239051,-0.07968 0.51149,0.06111 0.755952,0 0.773051,-0.193265 1.486487,-0.599681 2.267857,-0.755954 0.494181,-0.09884 1.061141,0.225382 1.511903,0 0.907143,-0.45357 1.360715,-1.814285 2.267858,-2.267858 0.258112,-0.129056 4.438925,0 5.291667,0 0.403841,0 3.563405,-0.108177 3.779763,0 1.157798,0.578901 0.591166,1.347121 1.511903,2.267858 0.398423,0.398423 1.199356,0.287131 1.511906,0.755954 0.279551,0.419325 -0.225383,1.061141 0,1.511903 0.112689,0.225383 0.577771,-0.178178 0.755952,0 0.178181,0.178181 -0.07969,0.516901 0,0.755952 0.178181,0.53454 0.357531,1.113483 0.755951,1.511906 0.178181,0.178178 0.643263,-0.225383 0.755954,0 0.338072,0.676145 0,1.511906 0,2.267857 0,0.340447 0.115031,2.037795 0,2.267858 -0.159369,0.318735 -0.596585,0.437213 -0.755954,0.755951 -0.112688,0.22538 0.112692,0.530572 0,0.755952 -0.343797,0.687596 -2.872129,2.1541 -3.023809,2.267857 -0.570174,0.427631 -0.918887,1.116561 -1.511903,1.511906 -0.468823,0.312547 -1.113483,0.357529 -1.511906,0.755952 -0.178181,0.178178 0.225383,0.64326 0,0.755952 -0.450763,0.225382 -1.033799,-0.15937 -1.511906,0 -0.676143,0.225382 -0.83576,1.286523 -1.511903,1.511905 -4.796959,1.598986 2.482286,-2.617668 -3.023809,1.511904 -1.9143,1.435724 -0.991714,0.349533 -3.023809,0.755954 -0.78137,0.156273 -1.511906,0.503968 -2.267858,0.755951 -0.755954,0.251984 -1.528006,0.460013 -2.267857,0.755953 -0.523153,0.20926 -0.965274,0.61929 -1.511906,0.75595 -0.962425,0.24061 -2.797998,-0.24544 -3.779761,0 -0.773052,0.19327 -1.511906,0.50397 -2.267857,0.75595 -0.755952,0.25199 -1.528006,0.46002 -2.267858,0.75596 -0.523153,0.20926 -0.977365,0.57777 -1.511903,0.75595 -0.717161,0.23905 -1.550699,-0.23905 -2.267858,0 -0.676145,0.22538 -0.87443,1.19317 -1.511905,1.5119 -0.712719,0.35636 -1.555138,0.3996 -2.267857,0.75596 -0.637475,0.31873 -0.87443,1.19316 -1.511905,1.5119 -0.225381,0.11269 -0.577773,-0.17818 -0.755952,0 -0.17818,0.17818 -0.225382,0.64326 0,0.75595 0.450763,0.22539 1.007936,0 1.511904,0 0.503969,0 1.017724,0.0988 1.511905,0 0.78137,-0.15627 1.486488,-0.59967 2.267857,-0.75595 0.494182,-0.0988 1.033799,0.15937 1.511905,0 0.338071,-0.11269 0.437216,-0.59658 0.755952,-0.75595 0.229838,-0.11492 2.501807,0 3.023809,0 1.511906,0 3.023811,0 4.535715,0 0.503967,0 1.033798,-0.15937 1.511906,0 0.338071,0.11269 0.437213,0.59658 0.755951,0.75595 0.225383,0.11269 0.530572,-0.11269 0.755952,0 0.637476,0.31874 0.874429,1.19317 1.511906,1.5119 0.22538,0.1127 0.530571,-0.11268 0.755951,0 0.270373,0.13519 2.814228,2.70944 3.023809,3.02382 0.625097,0.93764 0.835761,2.12228 1.511906,3.02381 0.42763,0.57017 1.193168,0.87443 1.511904,1.5119 0.225382,0.45076 -0.12223,1.02298 0,1.5119 0.912614,3.65046 0.359243,-0.0375 1.511905,2.26786 0.112692,0.22538 -0.112691,0.53057 0,0.75595 0.318739,0.63748 1.193168,0.87443 1.511906,1.51191 0.112689,0.22538 -0.112691,0.53057 0,0.75595 0.159367,0.31874 0.596583,0.43721 0.755952,0.75595 0.112691,0.22539 -0.112691,0.53057 0,0.75595 0.159369,0.31874 0.503968,0.50398 0.755952,0.75596 0.251983,0.25198 0.437216,0.59658 0.755951,0.75595 0.225383,0.11269 0.577773,-0.17818 0.755954,0 0.178179,0.17818 -0.178181,0.57777 0,0.75595 0.35636,0.35636 1.061141,-0.22538 1.511904,0 0.318738,0.15937 0.437216,0.59659 0.755954,0.75596 0.22538,0.11269 0.503968,0 0.755951,0 0.251984,0 0.503968,0 0.755952,0 0.277614,0 2.99339,0.0304 3.023809,0 0.178181,-0.17818 -0.112688,-0.53058 0,-0.75596 0.159369,-0.31874 0.503968,-0.50397 0.755954,-0.75595 0.251984,-0.25198 0.503968,-0.50397 0.755952,-0.75595 1.457198,-1.4572 1.551398,-1.23266 2.267858,-3.02381 0.295939,-0.73985 0.399592,-1.55514 0.755951,-2.26786 0.159369,-0.31874 0.643263,-0.41788 0.755952,-0.75595 0.157414,-0.47224 0,-5.6412 0,-6.04762 0,-0.18334 0.02432,-2.24355 0,-2.26786 -0.178179,-0.17818 -0.577771,0.17818 -0.755952,0 -0.50297,-0.50297 0.50297,-1.00893 0,-1.5119 -0.178181,-0.17818 -0.530571,0.11269 -0.755951,0 -3.146095,-1.57305 0.808138,0.0522 -0.755955,-1.51191 -0.178178,-0.17818 -0.57777,0.17818 -0.755951,0 -0.178179,-0.17818 -0.178179,-0.57777 0,-0.75595 0.178181,-0.17818 0.577773,-0.17818 0.755951,0 0.178181,0.17818 -0.178178,0.57777 0,0.75595 0.178181,0.17818 0.643263,-0.22538 0.755955,0 0.22538,0.45077 -0.225383,1.06115 0,1.51191 0.112688,0.22538 0.57777,-0.17818 0.755951,0 7.94e-4,7.9e-4 -0.0011,2.26443 0,2.26786 0.112692,0.33807 0.596583,0.43721 0.755952,0.75595 0.112691,0.22538 -0.112689,0.53057 0,0.75595 0.159369,0.31874 0.596585,0.43722 0.755954,0.75595 0.237564,0.47513 -0.237567,2.54868 0,3.02381 0.159367,0.31874 0.503968,0.50397 0.755952,0.75595 0,0.50397 -0.159369,1.0338 0,1.51191 0.170629,0.51189 1.979125,1.69039 2.267857,2.26786 0.112689,0.22538 -0.178181,0.57777 0,0.75595 0.35636,0.35636 1.033799,-0.15937 1.511903,0 0.534541,0.17818 0.977366,0.57777 1.511906,0.75595 0.426506,0.14217 1.771116,0 2.267858,0 0.277611,0 2.993387,0.0304 3.023809,0 0.178178,-0.17818 -0.112691,-0.53057 0,-0.75595 0.960265,-1.92053 0.903496,0.77418 1.511903,-2.26786 0.148257,-0.74127 0,-1.5119 0,-2.26786 0,-1.25992 0,-2.51984 0,-3.77976 0,-0.64885 0.147431,-4.09342 0,-4.53571 -0.112689,-0.33807 -0.596582,-0.43722 -0.755951,-0.75596 -0.112692,-0.22538 0,-0.50396 0,-0.75595 0,-0.50396 0.225382,-1.06114 0,-1.5119 -0.112692,-0.22538 -0.503968,0 -0.755952,0 -0.251984,-0.50397 -0.755952,-0.94845 -0.755952,-1.51191 0,-0.25198 0.577771,-0.17818 0.755952,0 0.356359,0.35636 -0.225383,1.06114 0,1.51191 0.159369,0.31874 0.596582,0.43721 0.755952,0.75595 0.112691,0.22538 0,0.50397 0,0.75595 0,0.25199 0,0.50397 0,0.75595 0,1.25993 0,2.51985 0,3.77977 0,0.25198 0,0.50397 0,0.75595 0,0.25198 -0.112692,0.53057 0,0.75595 0.159369,0.31874 0.596585,0.43722 0.755951,0.75596 0.302382,0.60476 -0.302379,1.66309 0,2.26785 1.573049,3.14609 -0.05219,-0.80814 1.511906,0.75595 1.564092,1.5641 -2.39014,-0.0611 0.755952,1.51191 0.450762,0.22538 1.022985,-0.12223 1.511905,0 0.773052,0.19326 1.555139,0.39959 2.267858,0.75595 0.318736,0.15937 0.437213,0.59658 0.755952,0.75595 0.263543,0.13178 3.980785,0 4.535715,0 0.395303,0 2.825038,0.0994 3.023809,0 0.200713,-0.10035 2.167501,-2.06714 2.267857,-2.26785 0.112689,-0.22538 -0.06112,-0.5115 0,-0.75596 0.193262,-0.77305 0.460013,-1.528 0.755952,-2.26785 0.418523,-1.04631 1.238588,-1.93055 1.511906,-3.02381 0.244459,-0.97784 -0.244462,-2.04597 0,-3.02381 1.233826,-4.93531 0.405923,2.85612 1.511903,-3.77976 0.124277,-0.74567 0,-1.51191 0,-2.26786 0,-1.51191 0,-3.02381 0,-4.535714 0,-4.787699 0,-9.575398 0,-14.363097 0,-0.755951 0,-1.511903 0,-2.267857 0,-0.755952 0.124277,-1.52219 0,-2.267855 -0.131001,-0.786003 -0.599678,-1.48649 -0.755952,-2.267858 -0.115472,-0.577365 0.191744,-2.448581 0,-3.023809 -1.825225,-5.475679 0.217943,1.19184 -1.511906,-2.267857 -0.07753,-0.155067 -0.106608,-2.161249 0,-2.267858 0.178181,-0.178181 0.530572,-0.112691 0.755955,0 1.365975,0.682988 0.470381,1.881529 0.755951,3.023809 0.136658,0.54663 0.503968,1.007936 0.755952,1.511906 0,0.755952 -0.124278,1.522191 0,2.267855 0.131,0.786003 0.599678,1.486488 0.755952,2.267858 0.197672,0.988364 0,2.015873 0,3.023809 0,1.511906 0,3.023812 0,4.535715 0,4.031747 0,8.063492 0,12.095239 0,2.015874 0,4.031744 0,6.047614 0,0.50397 0,1.00794 0,1.51191 0,0.25198 -0.07968,0.5169 0,0.75595 0.457663,1.37298 0.64698,1.40293 1.51191,2.26786 0.25198,0.25198 0.59658,0.43721 0.75595,0.75595 0.11269,0.22538 -0.17818,0.57777 0,0.75595 0.17818,0.17818 0.57777,-0.17818 0.75595,0 0.17818,0.17818 -0.17818,0.57778 0,0.75596 0.35636,0.35636 1.15555,-0.35637 1.5119,0 0.17819,0.17817 -0.17817,0.57777 0,0.75595 0.17819,0.17818 0.50397,0 0.75596,0 0.50397,0 1.00793,0 1.5119,0 0.50397,0 1.0338,0.15937 1.51191,0 0.53454,-0.17818 1.00793,-0.50397 1.5119,-0.75595 0.50397,-0.25199 1.11348,-0.35753 1.51191,-0.75596 0.17818,-0.17818 -0.13978,-0.54629 0,-0.75595 0.39534,-0.59302 1.00793,-1.00793 1.5119,-1.51191 0.25198,-0.25198 0.64326,-0.41788 0.75595,-0.75595 0.15937,-0.4781 0,-1.00793 0,-1.5119 0,-0.75595 0,-1.51191 0,-2.26786 0,-1.76389 0,-3.52778 0,-5.291664 0,-6.047621 0,-12.095239 0,-18.142857 0,-2.519842 0,-5.039683 0,-7.559525 0,-0.503967 0,-1.007935 0,-1.511905 0,-0.251984 -0.25198,-0.755952 0,-0.755952 0.25199,0 0,0.503968 0,0.755952 0,0.755954 0,1.511905 0,2.267857 0,2.267858 0,4.535715 0,6.803573 0,3.023809 0,6.047618 0,9.071427 0,1.259922 0.24709,2.544307 0,3.779763 -0.1105,0.552511 -0.64545,0.959393 -0.75595,1.511904 -0.14825,0.741272 0.14825,1.526584 0,2.267857 -0.1105,0.552511 -0.57777,0.977366 -0.75595,1.511906 -0.14597,0.437904 0,2.368714 0,3.023804 0,3.52778 0,7.05556 0,10.58334 0,0.75595 0,1.5119 0,2.26786 0,0.25198 0.25198,0.75595 0,0.75595 -0.35636,0 -0.41788,-0.64327 -0.75595,-0.75595 -0.47811,-0.15937 -1.15555,0.35636 -1.51191,0 -0.35636,-0.35636 0,-1.00794 0,-1.51191 0,-0.50397 0,-1.00794 0,-1.5119 0,-0.48647 -0.1279,-4.78008 0,-5.29167 0.13666,-0.54663 0.6193,-0.96528 0.75595,-1.51191 0.12223,-0.48892 -0.0988,-1.01772 0,-1.5119 0.15628,-0.78137 0.59968,-1.48649 0.75596,-2.26786 0.0988,-0.49418 -0.22539,-1.06114 0,-1.511903 0.11269,-0.225382 0.50396,0 0.75595,0 0.25198,-0.503967 0.57777,-0.977365 0.75595,-1.511905 0.15937,-0.478105 -0.22538,-1.061141 0,-1.511904 0.15937,-0.318738 0.59659,-0.437216 0.75595,-0.755951 0.22538,-0.450766 -0.35635,-1.155547 0,-1.511906 0.17818,-0.178181 0.57778,0.178178 0.75596,0 0.17817,-0.178181 -0.17818,-0.577773 0,-0.755952 0.17817,-0.178181 0.50396,0 0.75595,0 1.5119,0 3.02381,0 4.53571,0 0.25199,0 0.53057,-0.112691 0.75595,0 0.31874,0.159369 0.43722,0.596583 0.75596,0.755952 0.22538,0.112691 0.57777,-0.178181 0.75595,0 0.17818,0.178178 -0.17818,0.577773 0,0.755952 0.17818,0.178181 0.53057,-0.112692 0.75595,0 0.31874,0.159369 0.43722,0.596585 0.75595,0.755954 0.22539,0.112688 0.57778,-0.178181 0.75596,0 0.17818,0.178178 -0.17818,0.57777 0,0.755951 0.17818,0.178179 0.64326,-0.225382 0.75595,0 0.22538,0.450763 -0.22538,1.061141 0,1.511904 0.11269,0.225382 0.57777,-0.178179 0.75595,0 0.17818,0.178181 -0.11269,0.530571 0,0.755954 0.15937,0.318735 0.59659,0.437213 0.75595,0.755951 0.11269,0.225381 -0.11269,0.530573 0,0.755953 0.15937,0.31874 0.59659,0.43722 0.75596,0.75595 0.11269,0.22538 0,0.50397 0,0.75595 0,0.31801 -0.11244,4.31084 0,4.53572 0.15937,0.31874 0.59658,0.43721 0.75595,0.75595 0.14986,0.29973 -0.15454,2.11331 0,2.26786 0.17818,0.17818 0.53057,-0.11269 0.75595,0 1.63651,0.81825 -0.12461,0.69365 1.51191,1.5119 0.19877,0.0994 2.6285,0 3.0238,0 0.34045,0 2.0378,0.11504 2.26786,0 0.31874,-0.15937 0.43722,-0.59658 0.75595,-0.75595 0.22539,-0.11269 0.61618,0.20966 0.75596,0 0.91532,-1.37298 0.75595,-2.33936 0.75595,-3.77976 0,-0.25199 -0.0797,-0.5169 0,-0.75595 0.17818,-0.53454 0.61929,-0.96528 0.75595,-1.51191 0.12223,-0.48892 -0.15937,-1.0338 0,-1.5119 0.11269,-0.33807 0.59658,-0.43722 0.75595,-0.75596 0.11504,-0.23006 0,-1.9274 0,-2.267853"
       id="path12"
       inkscape:connector-curvature="0" />
    <path
       style="fill:none;stroke:#000000;stroke-width:0.26458332px;stroke-linecap:butt;stroke-linejoin:miter;stroke-opacity:1"
       d="m 89.202381,88.357143 c 6.00385,0 0.04514,0.244459 6.047618,-0.755955 0.497112,-0.08285 1.022985,0.122233 1.511906,0 0.546629,-0.136657 0.965274,-0.619294 1.511903,-0.755951 0.488921,-0.12223 1.022985,0.122229 1.511906,0 0.546626,-0.136657 0.977366,-0.577773 1.511906,-0.755952 0.23905,-0.07968 0.53057,0.112692 0.75595,0 0.31874,-0.159369 0.43721,-0.596585 0.75595,-0.755951 0.22538,-0.112692 0.57778,0.178178 0.75595,0 0.17819,-0.178181 -0.17817,-0.577774 0,-0.755955 0.17819,-0.178178 0.53058,0.112692 0.75596,0 0.31873,-0.159369 0.43721,-0.596582 0.75595,-0.755951 0.45076,-0.225383 1.06114,0.22538 1.5119,0 0.31874,-0.159369 0.99676,-0.49326 0.75596,-0.755952 -2.77183,-3.023812 -6.04762,-5.54365 -9.071432,-8.315476"
       id="path14"
       inkscape:connector-curvature="0" />
  </g>
</svg>
