<svg xmlns="http://www.w3.org/2000/svg" height="150" width="247">
  <path class="signature" stroke="#000" stroke-width="1" d="M17.77 136.86c0-1.156.511-3.085 1.136-4.286 1.53-2.94 17.354-26.544 27.036-40.33 4.305-6.13 7.827-11.418 7.827-11.75 0-.332-1.988-.604-4.418-.604-5.685 0-7.582-.769-7.582-3.072 0-2.793 3.116-3.928 10.78-3.928 5.333 0 7.259-.4 8.437-1.75 2.046-2.344 12.797-20.165 13.877-23 .471-1.238 1.318-2.25 1.881-2.25 2.103 0 .873 4.295-4.475 15.633-3.025 6.414-5.5 11.82-5.5 12.014 0 .807 5.543.253 11.871-1.186 7.303-1.661 23.958-9.577 33.63-15.983 13.132-8.7 29.5-26.619 29.5-32.298 0-11.074-23.748-9.105-86.5 7.17-37.225 9.655-44.216 11.131-45.94 9.7-1.821-1.512-.919-4.05 1.44-4.05 1.902 0 15.103-3.327 39.5-9.954 59.953-16.286 87.249-19.075 95.12-9.72 5.437 6.46 1.74 14.397-14.118 30.316-14.246 14.3-33.117 25.237-51.754 29.996-5.637 1.439-10.406 2.754-10.598 2.922-.193.168.124 1.798.704 3.623 1.327 4.176 4.145 30.08 4.145 38.1 0 5.958-.023 6.006-1.994 4.222-2.867-2.594-3.81-7.002-5.127-23.962-1.093-14.06-2.696-21.595-4.578-21.505-.44.02-1.95 1.708-3.355 3.75-1.404 2.041-8.553 12.487-15.885 23.212-14.128 20.665-20.106 28.418-23.176 30.061-1.568.84-1.885.656-1.885-1.092zm85-18.97c-1.1-1.1-2-2.719-2-3.596 0-3.207 3.342-12.964 7.11-20.755 2.124-4.393 4.148-9.51 4.497-11.372.512-2.73 1.046-3.326 2.764-3.08 3.08.44 2.614 3.149-3.278 19.055-2.802 7.565-5.094 13.977-5.094 14.25 0 .274.622.498 1.383.498 2.24 0 9.294-7.705 15.254-16.662 3.051-4.586 5.924-8.338 6.384-8.338.46 0 1.52.683 2.356 1.519 1.359 1.36 1.256 2.22-.98 8.158-2.722 7.234-2.842 13.028-.302 14.619 3.366 2.106 7.374-.406 18.223-11.418 10.333-10.487 10.785-11.124 10.077-14.18-.408-1.759-.663-6.39-.567-10.293.314-12.77 4.425-21.405 10.192-21.405 3.773 0 5.944 2.9 6.654 8.889.568 4.801.731 5.054 2.328 3.61 2.413-2.185 12.259-16.112 15.198-21.5 1.827-3.348 3.14-4.58 5.128-4.816 2.023-.24 2.672.12 2.672 1.482 0 1.898-13.932 29.88-17.227 34.6-1.061 1.52-1.764 3.261-1.561 3.869.566 1.7 15.248-12.642 25.288-24.704 15.085-18.122 18.127-21.107 20.207-19.823.986.609 1.917 1.734 2.069 2.5.151.767-3.396 7.47-7.883 14.894-18.283 30.252-17.817 29.235-12.393 27.054 5.02-2.018 6.988 3.14 3.963 10.38-2.41 5.77-2.162 12.191.585 15.116 2.541 2.704 7.574 4.433 12.952 4.447l3.5.009-3.424 2.087c-5.203 3.172-9.101 3.443-13.95.97-6.585-3.36-8.363-7.034-7.774-16.065l.489-7.5-3.984 4.5c-2.191 2.475-5.323 6.406-6.958 8.735-3.845 5.476-6.222 6.8-8.363 4.658-.978-.977-1.373-2.44-1.013-3.748.81-2.943 10.238-21.35 13.126-25.627 3.978-5.892 2.656-5.487-4.886 1.496-4.06 3.758-10.241 8.213-14.08 10.146-7.332 3.692-6.696 2.82-13.181 18.09-1.372 3.23-2.353 4.25-4.086 4.25-4.18 0-3.784-5.585 1.06-14.954 3.342-6.461.756-4.934-7.499 4.43-4.662 5.288-10.73 11.17-13.485 13.07-8.923 6.154-17.394 4.195-19.117-4.42l-.656-3.28-5.11 5.021c-4.543 4.466-8.91 7.134-11.674 7.134-.514 0-1.835-.9-2.935-2zm67.2-46.989c1.11-7.48.708-10.011-1.592-10.011-2.565 0-4.054 7.807-3.698 19.385l.09 2.884 2.083-2.649c1.276-1.622 2.485-5.347 3.117-9.609z"/>
</svg>
