<?xml version="1.0" encoding="UTF-8" standalone="no"?>
<svg
   xmlns:dc="http://purl.org/dc/elements/1.1/"
   xmlns:cc="http://creativecommons.org/ns#"
   xmlns:rdf="http://www.w3.org/1999/02/22-rdf-syntax-ns#"
   xmlns:svg="http://www.w3.org/2000/svg"
   xmlns="http://www.w3.org/2000/svg"
   viewBox="0 0 247 150"
   height="150"
   width="247"
   id="svg3989"
   version="1.1">
  <metadata
     id="metadata3995">
    <rdf:RDF>
      <cc:Work
         rdf:about="">
        <dc:format>image/svg+xml</dc:format>
        <dc:type
           rdf:resource="http://purl.org/dc/dcmitype/StillImage" />
        <dc:title></dc:title>
      </cc:Work>
    </rdf:RDF>
  </metadata>
  <defs
     id="defs3993" />
  <path
     class="signature"
     stroke="#000000" stroke-width="2"
     d="m 17.769236,136.8591 c 0,-1.15551 0.511738,-3.08384 1.137195,-4.28518 1.530283,-2.93928 17.353737,-26.54375 27.035463,-40.329862 4.305038,-6.13008 7.827342,-11.41758 7.827342,-11.75 0,-0.33242 -1.988196,-0.6044 -4.418213,-0.6044 -5.685294,0 -7.581787,-0.76838 -7.581787,-3.07181 0,-2.7928 3.115586,-3.92819 10.779271,-3.92819 5.33326,0 7.259334,-0.39947 8.43783,-1.75 2.045233,-2.3438 12.796874,-20.1642 13.876663,-23 0.471204,-1.2375 1.317872,-2.25 1.881485,-2.25 2.102392,0 0.872684,4.29583 -4.475249,15.63372 -3.025,6.41315 -5.5,11.81913 -5.5,12.01328 0,0.80723 5.542384,0.25356 11.87125,-1.18591 7.303,-1.66103 23.957854,-9.5767 33.628754,-15.98298 13.13295,-8.69963 29.5,-26.61874 29.5,-32.29743 0,-11.07422 -23.74711,-9.10582 -86.500004,7.17001 -37.224401,9.65465 -44.215139,11.13061 -45.9397782,9.69929 -1.820889,-1.5112 -0.918155,-4.04998 1.4400842,-4.04998 1.902796,0 15.103746,-3.32646 39.499694,-9.95337 59.953584,-16.2858 87.249534,-19.0751805 95.121024,-9.72044 5.43658,6.46101 1.74055,14.39736 -14.11867,30.31652 -14.24591,14.29976 -33.11683,25.23694 -51.753518,29.99526 -5.63686,1.4392 -10.406185,2.75427 -10.598501,2.92238 -0.192315,0.1681 0.124659,1.7983 0.704389,3.62265 1.327017,4.17599 4.145276,30.079682 4.145276,38.100802 0,5.95718 -0.02283,6.00551 -1.994388,4.22128 -2.866517,-2.59416 -3.809678,-7.00202 -5.127179,-23.96181 -1.092214,-14.059752 -2.695977,-21.594462 -4.577406,-21.505322 -0.440565,0.0209 -1.950322,1.70837 -3.355016,3.75 -1.404694,2.04163 -8.55324,12.48705 -15.885658,23.212052 -14.128073,20.66489 -20.10585,28.4188 -23.175698,30.06173 -1.568228,0.83929 -1.884655,0.6559 -1.884655,-1.09229 z m 85.000004,-18.96944 c -1.1,-1.1 -2,-2.71824 -2,-3.59609 0,-3.20671 3.34244,-12.96325 7.11007,-20.754232 2.12448,-4.39316 4.14843,-9.51068 4.49767,-11.37227 0.51227,-2.73063 1.04632,-3.32583 2.76362,-3.08004 3.07992,0.44081 2.61419,3.14855 -3.2775,19.05547 -2.80162,7.564072 -5.09386,13.976572 -5.09386,14.250002 0,0.27344 0.62206,0.49716 1.38235,0.49716 2.24052,0 9.29399,-7.70443 15.25404,-16.661832 3.05142,-4.58599 5.92439,-8.33817 6.38439,-8.33817 0.46,0 1.52006,0.6837 2.3557,1.51934 1.35911,1.35911 1.25582,2.21943 -0.97951,8.15815 -2.72262,7.233352 -2.84224,13.028262 -0.30175,14.618492 3.3651,2.10639 7.3738,-0.40522 18.22301,-11.41744 10.33203,-10.487272 10.7849,-11.124542 10.07668,-14.179662 -0.40785,-1.75938 -0.66308,-6.39143 -0.56718,-10.29343 0.31387,-12.77065 4.42508,-21.40545 10.1916,-21.40545 3.77307,0 5.94476,2.90116 6.65393,8.88898 0.56866,4.8015 0.73179,5.05443 2.32807,3.60982 2.41329,-2.184 12.25898,-16.11115 15.1984,-21.4988 1.82671,-3.34816 3.13922,-4.58099 5.1277,-4.81642 2.02322,-0.23954 2.67257,0.12047 2.67257,1.48173 0,1.89788 -13.93231,29.88014 -17.2269,34.59927 -1.06153,1.52051 -1.76429,3.26184 -1.5617,3.86961 0.56677,1.70033 15.24848,-12.64183 25.2886,-24.70375 15.08435,-18.12192 18.12707,-21.10693 20.20648,-19.82326 0.98644,0.60895 1.91744,1.73439 2.06889,2.50098 0.15145,0.76659 -3.39581,7.46835 -7.8828,14.89282 -18.28281,30.2519 -17.81713,29.23527 -12.39257,27.05437 5.01926,-2.01796 6.98787,3.13942 3.96234,10.38055 -2.41038,5.76883 -2.16157,12.190902 0.58559,15.115122 2.54103,2.7048 7.57382,4.43283 12.95207,4.44714 l 3.5,0.009 -3.42398,2.08736 c -5.20366,3.17232 -9.10135,3.44305 -13.95089,0.96899 -6.58436,-3.35908 -8.36209,-7.03279 -7.7734,-16.063832 l 0.48888,-7.5 -3.98406,4.5 c -2.19124,2.475 -5.32235,6.405752 -6.95803,8.735012 -3.84516,5.4756 -6.22156,6.79909 -8.36302,4.65764 -0.97724,-0.97724 -1.37289,-2.44091 -1.01315,-3.74802 0.80988,-2.94273 10.23816,-21.349822 13.12626,-25.626772 3.97864,-5.8919 2.6559,-5.48706 -4.88575,1.49536 -4.05955,3.75852 -10.24135,8.21338 -14.07938,10.14618 -7.33255,3.69261 -6.69628,2.81943 -13.18219,18.090602 -1.37187,3.23009 -2.35237,4.25 -4.08578,4.25 -4.1801,0 -3.78389,-5.58559 1.06076,-14.954102 3.34126,-6.46129 0.75579,-4.93424 -7.49952,4.429432 -4.66221,5.28816 -10.73065,11.16955 -13.48541,13.06976 -8.92218,6.15441 -17.39319,4.19564 -19.11639,-4.42032 l -0.65581,-3.27908 -5.10957,5.02125 c -4.54353,4.46532 -8.91034,7.13338 -11.67467,7.13338 -0.51419,0 -1.8349,-0.9 -2.9349,-2 z m 67.20097,-46.988572 c 1.11024,-7.48034 0.70774,-10.01143 -1.59203,-10.01143 -2.56512,0 -4.05442,7.8073 -3.6978,19.38486 l 0.0889,2.88486 2.08401,-2.6494 c 1.27614,-1.62234 2.48444,-5.34728 3.11696,-9.60889 z"
     style="fill:#000000" />
</svg>
